# xmcd CD database file
#
# Track frame offsets:
#	150
#	14722
#	29037
#	42947
#	57112
#
# Disc length: 970 seconds
#
# Revision: 1
# Processed by: cddbd v1.5.2PL0 Copyright (c) Steve Scherf et al.
# Submitted via: CDex 1.51
#
DISCID=4003c805
DTITLE=CROSS FIRE - BURST OUT
DYEAR=2004
DGENRE=Rock
TTITLE0=Without Weakness
TTITLE1=Close Shave
TTITLE2=Crush On You
TTITLE3=Made In Paradise
TTITLE4=Welcome, Mr.Trouble
EXTD=YEAR: 2004
EXTT0=
EXTT1=
EXTT2=
EXTT3=
EXTT4=
PLAYORDER=
